<svg width="357" height="226" viewBox="0 0 357 226" fill="none" xmlns="http://www.w3.org/2000/svg">
<path d="M37.0383 84.5459C38.7847 85.5146 47.3065 106.26 51.3491 116.511L43.8299 126.198C42.0835 128.523 38.8979 129.104 37.5234 129.104L13.5103 130.072C12.346 127.941 8.01238 127.893 5.99108 128.135C2.59529 128.862 0.412281 132.736 1.13995 136.611C1.72209 139.71 5.42511 141.615 7.20386 142.181C6.62173 147.605 9.54856 154.127 11.0847 156.71C10.5026 160.197 14.0763 164.137 15.9359 165.67C33.2059 194.342 70.5111 203.286 87.0049 204.174C98.4536 210.761 136.567 215.636 154.193 217.251C165.06 219.382 186.372 218.623 195.67 217.977L198.338 222.094L202.947 217.251C206.246 216.863 216.934 215.798 221.866 215.314L232.539 225L239.088 212.408L252.428 209.502L268.437 222.094L282.263 202.479C283.621 204.222 296.412 209.825 302.638 212.408L304.093 189.16L319.374 203.448L327.863 177.052L346.783 178.989L339.264 153.804L356 150.656L335.868 124.503L356 116.269L327.863 92.053C331.55 90.5031 342.498 81.5593 347.511 77.2811L313.31 65.6573C315.251 63.72 323.821 53.3877 327.863 48.4638H290.51C290.51 46.3328 293.582 35.9521 295.118 31.0281C292.402 32.1905 273.773 32.4811 264.799 32.4811C259.948 17.3702 255.501 9.07207 253.884 6.81189L224.049 23.7632C222.109 23.3758 213.377 8.42631 209.253 1C205.372 3.90595 190.657 19.1622 183.785 26.427C182.233 9.96 178.934 3.7445 177.478 2.69514C175.538 6.56973 157.912 20.1308 149.342 26.427L138.184 4.39027L116.354 34.6605L97.6774 19.6465L83.8517 55.4865L67.6004 42.8941C66.2421 46.7687 61.6982 66.3031 59.596 75.5859C50.4759 84.3038 40.7575 85.1917 37.0383 84.5459Z" fill="black" stroke="black"/>
</svg>
