<svg width="398" height="443" viewBox="0 0 398 443" fill="none" xmlns="http://www.w3.org/2000/svg">
<path d="M386.269 324.922C392.973 332.18 396.324 340.555 396.324 350.045C396.324 358.978 393.531 366.236 387.945 371.818C367.277 394.15 342.699 411.736 314.211 424.577C285.722 436.859 256.396 443 226.232 443C190.481 443 158.641 436.859 130.712 424.577C102.782 411.736 79.0414 394.708 59.4905 373.493C39.9396 351.72 25.1368 327.714 15.0821 301.474C5.02737 275.235 0 248.716 0 221.919C0 180.606 9.21685 143.2 27.6505 109.703C46.6428 76.2061 72.3382 49.6875 104.737 30.1475C137.135 10.0492 174.003 0 215.339 0C280.695 0 331.806 22.3315 368.674 66.9944C376.494 75.9269 383.197 86.2552 388.783 97.9792C394.928 109.145 398 120.311 398 131.476C398 142.084 395.766 151.016 391.297 158.274C387.387 165.532 381.801 171.394 374.539 175.86C367.277 180.326 358.898 182.56 349.402 182.56C335.996 182.56 324.545 177.814 315.048 168.323C306.111 158.274 301.642 146.55 301.642 133.151C301.642 128.127 302.48 123.381 304.156 118.915C306.39 113.89 308.625 109.703 310.859 106.354C313.652 102.446 313.652 98.8167 310.859 95.4669C300.804 82.6264 287.398 73.1355 270.64 66.9944C253.882 60.8532 235.448 57.7826 215.339 57.7826C185.175 57.7826 158.641 65.0403 135.739 79.5558C112.837 94.0712 94.9614 113.611 82.1137 138.176C69.266 162.74 62.8421 190.655 62.8421 221.919C62.8421 250.95 69.5453 277.747 82.9516 302.312C96.9165 326.318 115.909 345.858 139.928 360.932C163.948 375.447 191.878 382.705 223.718 382.705C248.296 382.705 270.919 377.401 291.587 366.794C312.255 356.187 330.41 342.508 346.051 325.76C352.195 319.619 359.178 316.548 366.998 316.548C374.818 316.548 381.242 319.34 386.269 324.922Z" fill="white"/>
</svg>
