<svg width="61" height="67" viewBox="0 0 61 67" fill="none" xmlns="http://www.w3.org/2000/svg">
<path d="M59.2021 49.1418C60.2295 50.2394 60.7432 51.506 60.7432 52.9414C60.7432 54.2924 60.3151 55.39 59.4589 56.2344C56.2912 59.6118 52.5242 62.2716 48.1579 64.2136C43.7916 66.0712 39.2968 67 34.6737 67C29.1944 67 24.3144 66.0712 20.0337 64.2136C15.753 62.2716 12.1144 59.6963 9.11789 56.4877C6.1214 53.1947 3.85263 49.564 2.31158 45.5955C0.770526 41.627 0 37.6163 0 33.5633C0 27.3151 1.41263 21.6578 4.2379 16.5917C7.14877 11.5255 11.087 7.51481 16.0526 4.55955C21.0182 1.51985 26.6688 0 33.0042 0C43.0211 0 50.8547 3.37745 56.5053 10.1323C57.7039 11.4833 58.7312 13.0454 59.5874 14.8185C60.5291 16.5072 61 18.196 61 19.8847C61 21.489 60.6575 22.8399 59.9726 23.9376C59.3733 25.0353 58.5172 25.9219 57.4042 26.5974C56.2912 27.2728 55.007 27.6106 53.5516 27.6106C51.4968 27.6106 49.7418 26.8929 48.2863 25.4575C46.9165 23.9376 46.2316 22.1645 46.2316 20.138C46.2316 19.3781 46.36 18.6604 46.6168 17.9849C46.9593 17.225 47.3018 16.5917 47.6442 16.0851C48.0723 15.494 48.0723 14.9452 47.6442 14.4386C46.1032 12.4965 44.0484 11.0611 41.48 10.1323C38.9116 9.20353 36.0863 8.73913 33.0042 8.73913C28.3811 8.73913 24.3144 9.8368 20.8042 12.0321C17.294 14.2275 14.5544 17.1827 12.5853 20.8979C10.6161 24.6131 9.63158 28.8349 9.63158 33.5633C9.63158 37.954 10.6589 42.0069 12.7137 45.7221C14.854 49.3529 17.7649 52.3081 21.4463 54.5879C25.1277 56.7832 29.4084 57.8809 34.2884 57.8809C38.0554 57.8809 41.5228 57.0788 44.6905 55.4745C47.8582 53.8702 50.6407 51.8015 53.0379 49.2684C53.9797 48.3396 55.0498 47.8752 56.2484 47.8752C57.447 47.8752 58.4316 48.2974 59.2021 49.1418Z" fill="black"/>
</svg>
