<svg width="133" height="138" viewBox="0 0 133 138" fill="none" xmlns="http://www.w3.org/2000/svg">
<path d="M105.846 101.548C107.648 103.481 108.549 105.712 108.549 108.24C108.549 110.619 107.799 112.553 106.297 114.04C100.74 119.988 94.1326 124.672 86.4737 128.093C78.8147 131.364 70.9305 133 62.8211 133C53.2098 133 44.6498 131.364 37.1411 128.093C29.6323 124.672 23.2498 120.137 17.9937 114.486C12.7375 108.686 8.75789 102.292 6.05474 95.3025C3.35158 88.3132 2 81.2495 2 74.1115C2 63.1071 4.4779 53.1437 9.43368 44.2212C14.5396 35.2987 21.4477 28.235 30.1579 23.0303C38.8681 17.6768 48.7797 15 59.8926 15C77.4632 15 91.2042 20.9483 101.116 32.845C103.218 35.2243 105.02 37.9754 106.522 41.0983C108.174 44.0725 109 47.0466 109 50.0208C109 52.8463 108.399 55.2256 107.198 57.1588C106.147 59.092 104.645 60.6534 102.693 61.8431C100.74 63.0328 98.4877 63.6276 95.9347 63.6276C92.3305 63.6276 89.2519 62.3636 86.6989 59.8355C84.2961 57.1588 83.0947 54.0359 83.0947 50.4669C83.0947 49.1285 83.32 47.8645 83.7705 46.6749C84.3712 45.3365 84.9719 44.2212 85.5726 43.3289C86.3235 42.288 86.3235 41.3214 85.5726 40.4291C82.8695 37.0088 79.2653 34.4808 74.76 32.845C70.2547 31.2092 65.2989 30.3913 59.8926 30.3913C51.7832 30.3913 44.6498 32.3245 38.4926 36.1909C32.3354 40.0573 27.5298 45.2621 24.0758 51.8053C20.6218 58.3485 18.8947 65.7839 18.8947 74.1115C18.8947 81.8444 20.6968 88.9824 24.3011 95.5255C28.0554 101.92 33.1614 107.125 39.6189 111.14C46.0765 115.006 53.5853 116.94 62.1453 116.94C68.753 116.94 74.8351 115.527 80.3916 112.701C85.9481 109.876 90.8288 106.233 95.0337 101.771C96.6856 100.135 98.5628 99.3176 100.665 99.3176C102.768 99.3176 104.495 100.061 105.846 101.548Z" fill="black"/>
<path d="M98.5074 110.533C99.3045 112.811 99.2378 115.003 98.3074 117.111C97.4317 119.095 96.0917 120.429 94.2872 121.114C87.4466 124.02 80.1911 125.484 72.5209 125.506C64.9053 125.403 57.7033 123.854 50.9147 120.857C42.8689 117.306 36.3051 112.779 31.2234 107.276C26.1965 101.65 22.5228 95.51 20.2025 88.8563C17.9369 82.0786 16.9589 75.2766 17.2683 68.4504C17.5777 61.6243 19.0459 55.2355 21.6729 49.2842C25.7229 40.1093 31.4641 32.7179 38.8965 27.11C46.4546 21.5577 54.8371 18.2211 64.0441 17.1002C73.3059 15.8553 82.5882 17.2861 91.8912 21.3926C106.6 27.8853 115.914 37.9224 119.832 51.5037C120.717 54.2644 121.213 57.2241 121.321 60.3827C121.609 63.4728 121.206 66.2577 120.111 68.7374C119.071 71.0932 117.693 72.855 115.976 74.0228C114.384 75.2462 112.552 75.9931 110.48 76.2636C108.408 76.534 106.303 76.1976 104.166 75.2542C101.149 73.9224 99.0371 71.7309 97.8303 68.6797C96.804 65.5601 96.9476 62.5125 98.2611 59.5368C98.7537 58.421 99.4075 57.4503 100.222 56.6249C101.218 55.731 102.131 55.0231 102.962 54.5012C103.974 53.9107 104.33 53.1048 104.03 52.0834C103.026 48.2329 100.939 44.7933 97.7694 41.7647C94.6 38.7361 90.7524 36.2229 86.2266 34.2251C79.438 31.2285 72.7551 30.2044 66.1778 31.1528C59.6005 32.1012 53.6621 34.6649 48.3625 38.8439C43.0629 43.0229 38.8807 48.584 35.8159 55.5272C32.9699 61.9744 31.8515 68.5916 32.4606 75.3788C33.2501 82.0975 35.6089 88.3238 39.5369 94.0576C43.5197 99.6674 49.094 104.054 56.2597 107.217C61.7912 109.659 67.4026 110.728 73.0939 110.426C78.7852 110.123 84.2119 108.889 89.3738 106.723C91.3587 105.97 93.2311 105.982 94.9911 106.759C96.7511 107.536 97.9232 108.794 98.5074 110.533Z" fill="#FFCCCB"/>
</svg>
